<svg xmlns="http://www.w3.org/2000/svg" width="100" height="24" viewBox="0 0 100 24"><defs><style>.a{fill:#4a4f57;}</style></defs><path class="a" d="M259.666,370.25a3.262,3.262,0,0,0-2.612-.959,4.022,4.022,0,0,0-4.268,3.34l-3.353,15a3,3,0,0,0,.441,2.709,3.262,3.262,0,0,0,2.612.959,4.023,4.023,0,0,0,4.268-3.34l3.353-15A3,3,0,0,0,259.666,370.25Z" transform="translate(-249.311 -367.3)"/><path class="a" d="M309.427,369.291a10.417,10.417,0,0,0-7.107,2.748,5.463,5.463,0,0,0-5.083-2.748,11.149,11.149,0,0,0-6.681,2.254,2.559,2.559,0,0,0-.574-1.292,2.976,2.976,0,0,0-2.395-.963,4.112,4.112,0,0,0-4.111,3.34l-3.353,15a3,3,0,0,0,.441,2.709,3.262,3.262,0,0,0,2.612.959,4.022,4.022,0,0,0,4.268-3.34l2.022-9.045a4.61,4.61,0,0,1,4.273-3.583,1.677,1.677,0,0,1,1.329.45,2.492,2.492,0,0,1,.206,2.1l-2.18,9.752a3,3,0,0,0,.441,2.709,3.262,3.262,0,0,0,2.612.959,4.022,4.022,0,0,0,4.267-3.34l2.022-9.045a4.609,4.609,0,0,1,4.273-3.583,1.677,1.677,0,0,1,1.329.45,2.49,2.49,0,0,1,.206,2.1l-2.18,9.752a3,3,0,0,0,.441,2.709,3.263,3.263,0,0,0,2.612.959,4.022,4.022,0,0,0,4.268-3.34l2.488-11.129c.53-2.371.236-4.236-.875-5.543C313.872,369.962,312,369.291,309.427,369.291Z" transform="translate(-269.452 -367.3)"/><path class="a" d="M404.93,382.8a4.805,4.805,0,0,0-2.913,1.19,6.442,6.442,0,0,1-4.288,1.49,3.639,3.639,0,0,1-2.873-1.043,3.007,3.007,0,0,1-.591-2.333h12.189c2.339,0,3.342-.777,3.832-2.968a7.8,7.8,0,0,0-1.536-6.834c-1.168-1.375-3.434-3.013-7.6-3.013A13.885,13.885,0,0,0,387.2,380.485a8.8,8.8,0,0,0,1.5,7.8c1.7,2,4.419,3.018,8.078,3.018,3.878,0,10-1.724,10.828-5.425a2.479,2.479,0,0,0-.535-2.134A2.75,2.75,0,0,0,404.93,382.8Zm-4.509-8.141a3.025,3.025,0,0,1,2.256.861,2.975,2.975,0,0,1,.773,1.883h-7.832A5.534,5.534,0,0,1,400.421,374.662Z" transform="translate(-341.733 -367.3)"/><path class="a" d="M475.441,366.755a2.505,2.505,0,0,0-1.584-.822l.006,0s-.1-.155-4.921-.044h-2.177c-10.2-.25-11.349-4.026-13.73-1.55-1.49,1.551,0,6.493,11.789,7.386h0L453.232,381.5a4.273,4.273,0,0,0-1.447,2.408,2.406,2.406,0,0,0,.477,2.13,2.968,2.968,0,0,0,2.4.952h14.534a3.564,3.564,0,0,0,3.587-2.753,2.406,2.406,0,0,0-.43-2.184,2.854,2.854,0,0,0-2.209-.9h-7.2l11.382-9.666a4.4,4.4,0,0,0,1.571-2.26A2.72,2.72,0,0,0,475.441,366.755Z" transform="translate(-385.734 -363.498)"/><path class="a" d="M529.277,370.25a3.262,3.262,0,0,0-2.612-.959,4.022,4.022,0,0,0-4.268,3.34l-3.353,15a3,3,0,0,0,.441,2.709,3.262,3.262,0,0,0,2.612.959,4.023,4.023,0,0,0,4.268-3.34l3.353-15A3,3,0,0,0,529.277,370.25Z" transform="translate(-429.84 -367.3)"/></svg>