<svg width="718" height="212" viewBox="0 0 718 212" fill="none" xmlns="http://www.w3.org/2000/svg">
<path d="M184 208.609H123L73 30.6086L59 5.60864L118.5 6.60864L150 110.109L157.5 142.109L212 4.10864H272L184 208.609Z" fill="#FCFCFC"/>
<path d="M150.5 111.609C114.9 38.8086 46 12.6086 16 8.60864C10.4 7.64359 7.66667 4.8732 7 3.60864H109C123 4.40864 129.167 12.2753 130.5 16.1086L150.5 111.609Z" fill="#5E34AA"/>
<path d="M351.5 3.60864H295L260 208.609H316.5L351.5 3.60864Z" fill="#FCFCFC"/>
<path d="M437.5 51.1086C459.5 34.3086 496.333 45.1086 512 52.6086C514.833 38.442 520.5 9.90862 520.5 9.10852C480.9 -6.09148 440 1.10852 424.5 6.60852C379.3 23.8085 372.667 55.7752 375 69.6085C375 96.8085 406 115.942 421.5 122.109C441.5 131.309 450.167 139.275 452 142.109C456.4 155.709 446.5 163.109 441 165.109C403.4 175.509 371 162.442 359.5 154.609L351.5 200.109C364.7 207.709 396.333 210.942 410.5 211.609C446.9 214.409 476.667 199.775 487 192.109C507.8 174.509 512.667 150.775 512.5 141.109C512.5 108.709 475.833 88.2752 457.5 82.1085C427.9 73.3085 431.833 57.7753 437.5 51.1086Z" fill="#FCFCFC"/>
<path d="M593 18.1086L508.5 208.109H567L627 59.6086L651.5 178.609L658.5 209.109H711C697.833 147.275 670.9 22.1086 668.5 16.1086C666.1 10.1086 678.5 4.94192 685 3.10856H622.5C603.7 2.70856 595 12.9419 593 18.1086Z" fill="#FCFCFC"/>
<path d="M644.5 136.109H595L572 178.109H655.5L644.5 136.109Z" fill="#FCFCFC"/>
</svg>
