<svg width="2524" height="2458" viewBox="0 0 2524 2458" fill="none" xmlns="http://www.w3.org/2000/svg">
<path d="M2357.28 1819.24H165.509C137.093 1819.24 114.057 1842.28 114.057 1870.69V2014.4C114.057 2042.82 137.093 2065.85 165.509 2065.85H2357.28C2385.69 2065.85 2408.73 2042.82 2408.73 2014.4V1870.69C2408.73 1842.28 2385.69 1819.24 2357.28 1819.24Z" fill="#231F20"/>
<path d="M232.244 1706.59H2290.56V2022.14H232.244V1706.59Z" fill="#231F20"/>
<path d="M163.204 1946.26H466.997V2325.62C466.943 2360.56 453.029 2394.04 428.308 2418.72C403.588 2443.41 370.082 2457.27 335.149 2457.27H294.951C260.035 2457.24 226.556 2443.37 201.857 2418.69C177.158 2394.01 163.257 2360.54 163.204 2325.62V1946.26V1946.26Z" fill="#231F20"/>
<path d="M2055.8 1946.26H2359.6V2325.62C2359.54 2360.54 2345.64 2394.01 2320.94 2418.69C2296.24 2443.37 2262.76 2457.24 2227.85 2457.27H2187.65C2152.68 2457.27 2119.15 2443.38 2094.42 2418.65C2069.69 2393.93 2055.8 2360.39 2055.8 2325.42V1946.26Z" fill="#231F20"/>
<path d="M543.973 1998.52H1978.92V2113.28C1978.92 2134.34 1970.56 2154.53 1955.67 2169.42C1940.78 2184.31 1920.59 2192.67 1899.53 2192.67H623.263C602.207 2192.67 582.014 2184.31 567.126 2169.42C552.237 2154.53 543.873 2134.34 543.873 2113.28V1998.52H543.973Z" fill="#231F20"/>
<path d="M288.32 1942.54H2234.48V2148.96H288.32V1942.54Z" fill="#231F20"/>
<path d="M2390.34 1392.03C2376.88 1331.74 2299.9 1286.62 2299.9 1286.62H2299.29V239.472C2298.89 15.2701 1996.2 5.2207 1260.79 5.2207C525.379 5.2207 222.692 15.2701 222.692 239.472V1286.72H222.089C222.089 1286.72 144.81 1331.64 131.645 1392.13C118.48 1452.63 131.645 1785.67 131.645 1785.67L599.142 1819.23H1922.44L2389.94 1785.67C2389.94 1785.67 2403.81 1452.33 2390.34 1392.03Z" fill="#68E1FD"/>
<path d="M598.837 1824.16L130.939 1790.6C129.719 1790.48 128.581 1789.93 127.733 1789.04C126.885 1788.16 126.382 1787 126.316 1785.77C125.713 1772.11 112.95 1451.43 126.316 1390.93C139.079 1333.65 205.103 1291.04 217.564 1283.51V239.477C217.564 9.14495 519.045 0 1260.69 0C2002.33 0 2304.32 9.14495 2304.32 239.477V1283.61C2316.78 1291.14 2382.9 1333.85 2395.66 1391.03C2409.03 1451.33 2396.27 1772.21 2395.66 1785.87C2395.6 1787.11 2395.08 1788.29 2394.21 1789.17C2393.34 1790.06 2392.18 1790.6 2390.94 1790.7L1923.24 1824.16H598.837ZM136.566 1780.85L599.139 1814.11H1922.44L2384.71 1780.85C2386.22 1740.65 2396.97 1448.52 2384.71 1393.14C2372.45 1337.87 2303.31 1295.16 2296.78 1291.24C2295.78 1290.94 2294.89 1290.33 2294.24 1289.5C2293.6 1288.67 2293.22 1287.67 2293.16 1286.62V239.477C2293.16 132.451 2221.71 73.7624 2054.09 43.1118C1886.46 12.4612 1618.85 10.0494 1260.19 10.0494C901.524 10.0494 634.613 12.4612 466.286 43.1118C297.959 73.7624 227.111 132.451 227.111 239.477V1286.72C227.131 1287.88 226.738 1289.02 226.002 1289.92C225.266 1290.82 224.235 1291.43 223.091 1291.65C214.147 1297.07 147.62 1339.18 135.662 1393.24C123.703 1447.31 134.657 1741.05 136.164 1780.95L136.566 1780.85Z" fill="#231F20"/>
<path d="M695.119 1156.68H1827.68C1853.08 1156.68 1877.44 1166.77 1895.4 1184.73C1913.36 1202.69 1923.45 1227.05 1923.45 1252.45V1819.23H599.449V1252.45C599.449 1227.07 609.525 1202.72 627.464 1184.76C645.403 1166.81 669.737 1156.71 695.119 1156.68V1156.68Z" fill="#68E1FD"/>
<path d="M1923.45 1824.16H599.449C598.116 1824.16 596.838 1823.63 595.895 1822.69C594.953 1821.75 594.424 1820.47 594.424 1819.14V1252.35C594.424 1225.7 605.011 1200.14 623.858 1181.29C642.704 1162.45 668.265 1151.86 694.918 1151.86H1827.48C1854.13 1151.86 1879.7 1162.45 1898.54 1181.29C1917.39 1200.14 1927.98 1225.7 1927.98 1252.35V1819.14C1927.98 1820.39 1927.52 1821.6 1926.69 1822.52C1925.85 1823.45 1924.7 1824.04 1923.45 1824.16ZM604.473 1814.11H1918.43V1252.35C1918.43 1228.37 1908.9 1205.36 1891.94 1188.4C1874.98 1171.44 1851.97 1161.91 1827.98 1161.91H695.118C671.131 1161.91 648.126 1171.44 631.165 1188.4C614.203 1205.36 604.674 1228.37 604.674 1252.35L604.473 1814.11Z" fill="#231F20"/>
<path d="M451.717 1678.04H198.976C188.315 1678.04 178.09 1673.81 170.552 1666.27C163.013 1658.73 158.778 1648.51 158.778 1637.85V1471.83C158.778 1466.15 161.034 1460.71 165.048 1456.7C169.062 1452.68 174.506 1450.43 180.183 1450.43H431.418C436.238 1450.41 440.92 1452.04 444.699 1455.03C448.477 1458.03 451.128 1462.21 452.22 1466.91L490.608 1629.2C491.895 1635.05 491.861 1641.1 490.51 1646.93C489.158 1652.76 486.523 1658.21 482.797 1662.89C479.071 1667.57 474.347 1671.36 468.97 1673.98C463.593 1676.6 457.699 1677.99 451.717 1678.04V1678.04Z" fill="#231F20"/>
<path d="M194.657 1477.36H421.07V1626.49H194.657V1477.36Z" fill="#D1D3D4"/>
<path d="M599.443 1533.94C598.382 1533.95 597.343 1533.63 596.476 1533.01C595.609 1532.4 594.959 1531.53 594.62 1530.52C594.117 1529.01 540.454 1374.75 455.637 1324.71C370.82 1274.66 224.501 1291.55 223.296 1291.75C222.636 1291.83 221.967 1291.77 221.327 1291.59C220.687 1291.42 220.089 1291.11 219.566 1290.7C219.043 1290.29 218.607 1289.78 218.281 1289.2C217.955 1288.62 217.747 1287.98 217.668 1287.32C217.589 1286.66 217.64 1286 217.82 1285.36C217.999 1284.72 218.303 1284.12 218.713 1283.6C219.124 1283.07 219.633 1282.64 220.213 1282.31C220.792 1281.98 221.43 1281.78 222.09 1281.7C228.22 1280.89 372.83 1264.11 460.662 1315.97C548.493 1367.82 601.956 1520.67 604.167 1527C604.583 1528.26 604.49 1529.62 603.907 1530.81C603.324 1531.99 602.298 1532.9 601.051 1533.33L599.443 1533.94Z" fill="#231F20"/>
<path d="M2071.07 1678.04H2324.42C2335.08 1678.04 2345.3 1673.81 2352.84 1666.27C2360.38 1658.73 2364.62 1648.51 2364.62 1637.85V1471.83C2364.62 1466.15 2362.36 1460.71 2358.35 1456.7C2354.33 1452.68 2348.89 1450.43 2343.21 1450.43H2091.98C2087.17 1450.45 2082.5 1452.09 2078.73 1455.08C2074.96 1458.06 2072.3 1462.23 2071.17 1466.91L2032.99 1629.2C2031.71 1634.98 2031.73 1640.97 2033.03 1646.74C2034.34 1652.51 2036.9 1657.92 2040.54 1662.58C2044.18 1667.25 2048.8 1671.05 2054.08 1673.73C2059.36 1676.4 2065.16 1677.87 2071.07 1678.04Z" fill="#231F20"/>
<path d="M2328.14 1626.39H2101.72V1477.26H2328.14V1626.39Z" fill="#D1D3D4"/>
<path d="M1923.45 1533.93C1922.92 1534.04 1922.37 1534.04 1921.84 1533.93C1921.21 1533.73 1920.63 1533.4 1920.14 1532.97C1919.64 1532.54 1919.23 1532.01 1918.94 1531.42C1918.65 1530.83 1918.48 1530.19 1918.45 1529.54C1918.41 1528.88 1918.5 1528.22 1918.72 1527.6C1920.93 1521.07 1974.09 1368.32 2062.13 1316.57C2150.16 1264.81 2294.27 1281.49 2300.7 1281.49C2302.02 1281.64 2303.22 1282.31 2304.05 1283.35C2304.88 1284.38 2305.26 1285.7 2305.12 1287.02C2305.05 1287.68 2304.84 1288.32 2304.52 1288.9C2304.19 1289.49 2303.76 1290 2303.23 1290.41C2302.71 1290.82 2302.11 1291.12 2301.47 1291.3C2300.82 1291.48 2300.15 1291.53 2299.49 1291.44C2298.09 1291.44 2152.17 1274.36 2067.25 1324.4C1982.34 1374.45 1928.67 1528.71 1928.17 1530.21C1927.9 1531.27 1927.3 1532.21 1926.44 1532.88C1925.59 1533.55 1924.53 1533.92 1923.45 1533.93Z" fill="#231F20"/>
<path d="M693.603 1220.6H1823.65V1735.12H693.603V1220.6Z" fill="#68E1FD"/>
<path d="M1823.55 1740.25H693.603C692.27 1740.25 690.992 1739.72 690.05 1738.78C689.107 1737.83 688.578 1736.56 688.578 1735.22V1220.6C688.578 1219.26 689.107 1217.99 690.05 1217.04C690.992 1216.1 692.27 1215.57 693.603 1215.57H1823.55C1824.89 1215.57 1826.16 1216.1 1827.11 1217.04C1828.05 1217.99 1828.58 1219.26 1828.58 1220.6V1735.22C1828.58 1736.56 1828.05 1737.83 1827.11 1738.78C1826.16 1739.72 1824.89 1740.25 1823.55 1740.25ZM698.627 1730.2H1818.53V1225.62H698.627V1730.2Z" fill="#231F20"/>
<path d="M858.416 1740.25C857.084 1740.25 855.806 1739.72 854.863 1738.78C853.921 1737.83 853.392 1736.56 853.392 1735.22V1220.6C853.392 1219.26 853.921 1217.99 854.863 1217.04C855.806 1216.1 857.084 1215.57 858.416 1215.57C859.741 1215.6 861.004 1216.13 861.941 1217.07C862.878 1218.01 863.415 1219.27 863.441 1220.6V1735.22C863.415 1736.55 862.878 1737.81 861.941 1738.75C861.004 1739.69 859.741 1740.22 858.416 1740.25V1740.25Z" fill="#231F20"/>
<path d="M1058.2 1740.25C1056.86 1740.25 1055.59 1739.72 1054.64 1738.78C1053.7 1737.83 1053.17 1736.56 1053.17 1735.22V1220.6C1053.17 1219.26 1053.7 1217.99 1054.64 1217.04C1055.59 1216.1 1056.86 1215.57 1058.2 1215.57C1059.52 1215.6 1060.78 1216.13 1061.72 1217.07C1062.66 1218.01 1063.2 1219.27 1063.22 1220.6V1735.22C1063.2 1736.55 1062.66 1737.81 1061.72 1738.75C1060.78 1739.69 1059.52 1740.22 1058.2 1740.25V1740.25Z" fill="#231F20"/>
<path d="M1258.58 1740.25C1257.24 1740.25 1255.96 1739.72 1255.02 1738.78C1254.08 1737.83 1253.55 1736.56 1253.55 1735.22V1220.6C1253.55 1219.26 1254.08 1217.99 1255.02 1217.04C1255.96 1216.1 1257.24 1215.57 1258.58 1215.57C1259.91 1215.57 1261.19 1216.1 1262.13 1217.04C1263.07 1217.99 1263.6 1219.26 1263.6 1220.6V1735.22C1263.6 1736.56 1263.07 1737.83 1262.13 1738.78C1261.19 1739.72 1259.91 1740.25 1258.58 1740.25Z" fill="#231F20"/>
<path d="M1458.66 1740.25C1457.34 1740.22 1456.07 1739.69 1455.14 1738.75C1454.2 1737.81 1453.66 1736.55 1453.64 1735.22V1220.6C1453.66 1219.27 1454.2 1218.01 1455.14 1217.07C1456.07 1216.13 1457.34 1215.6 1458.66 1215.57C1459.99 1215.57 1461.27 1216.1 1462.21 1217.04C1463.16 1217.99 1463.69 1219.26 1463.69 1220.6V1735.22C1463.69 1736.56 1463.16 1737.83 1462.21 1738.78C1461.27 1739.72 1459.99 1740.25 1458.66 1740.25Z" fill="#231F20"/>
<path d="M1658.84 1740.25C1657.51 1740.25 1656.23 1739.72 1655.29 1738.78C1654.35 1737.83 1653.82 1736.56 1653.82 1735.22V1220.6C1653.82 1219.26 1654.35 1217.99 1655.29 1217.04C1656.23 1216.1 1657.51 1215.57 1658.84 1215.57C1660.17 1215.6 1661.43 1216.13 1662.37 1217.07C1663.3 1218.01 1663.84 1219.27 1663.87 1220.6V1735.22C1663.84 1736.55 1663.3 1737.81 1662.37 1738.75C1661.43 1739.69 1660.17 1740.22 1658.84 1740.25V1740.25Z" fill="#231F20"/>
<path d="M1823.55 1321.69H693.603C692.27 1321.69 690.992 1321.16 690.05 1320.22C689.107 1319.27 688.578 1318 688.578 1316.66C688.578 1315.33 689.107 1314.05 690.05 1313.11C690.992 1312.17 692.27 1311.64 693.603 1311.64H1823.55C1824.89 1311.64 1826.16 1312.17 1827.11 1313.11C1828.05 1314.05 1828.58 1315.33 1828.58 1316.66C1828.58 1318 1828.05 1319.27 1827.11 1320.22C1826.16 1321.16 1824.89 1321.69 1823.55 1321.69Z" fill="#231F20"/>
<path d="M1823.55 1375.25H693.603C692.27 1375.25 690.992 1374.72 690.05 1373.78C689.107 1372.84 688.578 1371.56 688.578 1370.23C688.578 1368.9 689.107 1367.62 690.05 1366.67C690.992 1365.73 692.27 1365.2 693.603 1365.2H1823.55C1824.89 1365.2 1826.16 1365.73 1827.11 1366.67C1828.05 1367.62 1828.58 1368.9 1828.58 1370.23C1828.58 1371.56 1828.05 1372.84 1827.11 1373.78C1826.16 1374.72 1824.89 1375.25 1823.55 1375.25Z" fill="#231F20"/>
<path d="M1823.55 1429.12H693.603C692.27 1429.12 690.992 1428.59 690.05 1427.65C689.107 1426.71 688.578 1425.43 688.578 1424.1C688.578 1422.76 689.107 1421.49 690.05 1420.54C690.992 1419.6 692.27 1419.07 693.603 1419.07H1823.55C1824.89 1419.07 1826.16 1419.6 1827.11 1420.54C1828.05 1421.49 1828.58 1422.76 1828.58 1424.1C1828.58 1425.43 1828.05 1426.71 1827.11 1427.65C1826.16 1428.59 1824.89 1429.12 1823.55 1429.12Z" fill="#231F20"/>
<path d="M1823.55 1482.48H693.603C692.27 1482.48 690.992 1481.95 690.05 1481.01C689.107 1480.06 688.578 1478.79 688.578 1477.45C688.578 1476.12 689.107 1474.84 690.05 1473.9C690.992 1472.96 692.27 1472.43 693.603 1472.43H1823.55C1824.89 1472.43 1826.16 1472.96 1827.11 1473.9C1828.05 1474.84 1828.58 1476.12 1828.58 1477.45C1828.58 1478.79 1828.05 1480.06 1827.11 1481.01C1826.16 1481.95 1824.89 1482.48 1823.55 1482.48Z" fill="#231F20"/>
<path d="M1823.55 1536.75H693.603C692.27 1536.75 690.992 1536.22 690.05 1535.28C689.107 1534.34 688.578 1533.06 688.578 1531.72C688.578 1530.39 689.107 1529.11 690.05 1528.17C690.992 1527.23 692.27 1526.7 693.603 1526.7H1823.55C1824.89 1526.7 1826.16 1527.23 1827.11 1528.17C1828.05 1529.11 1828.58 1530.39 1828.58 1531.72C1828.58 1533.06 1828.05 1534.34 1827.11 1535.28C1826.16 1536.22 1824.89 1536.75 1823.55 1536.75Z" fill="#231F20"/>
<path d="M1823.55 1590.51H693.603C692.27 1590.51 690.992 1589.98 690.05 1589.04C689.107 1588.1 688.578 1586.82 688.578 1585.48C688.578 1584.15 689.107 1582.87 690.05 1581.93C690.992 1580.99 692.27 1580.46 693.603 1580.46H1823.55C1824.89 1580.46 1826.16 1580.99 1827.11 1581.93C1828.05 1582.87 1828.58 1584.15 1828.58 1585.48C1828.58 1586.82 1828.05 1588.1 1827.11 1589.04C1826.16 1589.98 1824.89 1590.51 1823.55 1590.51Z" fill="#231F20"/>
<path d="M1823.55 1644.38H693.603C692.27 1644.38 690.992 1643.85 690.05 1642.91C689.107 1641.96 688.578 1640.68 688.578 1639.35C688.578 1638.02 689.107 1636.74 690.05 1635.8C690.992 1634.86 692.27 1634.33 693.603 1634.33H1823.55C1824.89 1634.33 1826.16 1634.86 1827.11 1635.8C1828.05 1636.74 1828.58 1638.02 1828.58 1639.35C1828.58 1640.68 1828.05 1641.96 1827.11 1642.91C1826.16 1643.85 1824.89 1644.38 1823.55 1644.38Z" fill="#231F20"/>
<path d="M693.603 1678.04H1823.65V1735.22H693.603V1678.04Z" fill="#231F20"/>
<path d="M693.603 1220.6H1823.65V1277.78H693.603V1220.6Z" fill="#231F20"/>
<path d="M2183.02 900.218H344.689C335.268 900.237 325.947 898.278 317.33 894.469C308.713 890.66 300.992 885.085 294.664 878.104C288.337 871.124 283.546 862.893 280.599 853.944C277.653 844.995 276.617 835.528 277.559 826.154L323.485 356.949C325.269 340.389 333.11 325.073 345.501 313.943C357.892 302.814 373.959 296.656 390.615 296.652H2136.59C2153.26 296.631 2169.36 302.778 2181.77 313.91C2194.18 325.042 2202.04 340.372 2203.82 356.949L2250.25 825.852C2251.22 835.255 2250.21 844.758 2247.27 853.743C2244.33 862.728 2239.54 870.995 2233.2 878.007C2226.86 885.02 2219.11 890.621 2210.47 894.447C2201.83 898.274 2192.47 900.239 2183.02 900.218Z" fill="white"/>
<path d="M1606.19 521.763H1930.68C1957.63 521.667 1983.69 531.418 2003.95 549.184C2024.22 566.95 2037.29 591.507 2040.72 618.237L2076.8 901.127H1460.17L1496.15 618.237C1499.58 591.507 1512.65 566.95 1532.92 549.184C1553.18 531.418 1579.24 521.667 1606.19 521.763V521.763Z" fill="#D1D3D4"/>
<path d="M588.788 521.763H913.382C940.314 521.691 966.347 531.454 986.59 549.218C1006.83 566.981 1019.89 591.524 1023.32 618.237L1059.4 901.127H442.771L478.747 618.237C482.177 591.507 495.253 566.95 515.518 549.184C535.782 531.418 561.838 521.667 588.788 521.763V521.763Z" fill="#D1D3D4"/>
<path d="M1143.12 835.505C1142.06 835.505 1141.03 835.173 1140.18 834.556C1139.32 833.94 1138.68 833.07 1138.35 832.069C1138.02 831.069 1138 829.989 1138.32 828.982C1138.63 827.975 1139.26 827.093 1140.1 826.46L1727.89 382.881C1728.96 382.107 1730.3 381.779 1731.61 381.967C1732.92 382.154 1734.11 382.842 1734.92 383.886C1735.34 384.403 1735.64 384.997 1735.82 385.635C1736 386.272 1736.05 386.939 1735.97 387.596C1735.88 388.252 1735.67 388.885 1735.33 389.457C1735 390.028 1734.55 390.526 1734.02 390.921L1146.13 834.5C1145.25 835.128 1144.2 835.478 1143.12 835.505V835.505Z" fill="#D1D3D4"/>
<path d="M1261.39 910.267C1258.73 910.267 1256.17 909.209 1254.29 907.324C1252.4 905.439 1251.34 902.883 1251.34 900.218V296.653C1251.34 293.988 1252.4 291.432 1254.29 289.547C1256.17 287.662 1258.73 286.604 1261.39 286.604C1264.06 286.604 1266.61 287.662 1268.5 289.547C1270.38 291.432 1271.44 293.988 1271.44 296.653V900.419C1271.39 903.049 1270.31 905.554 1268.43 907.395C1266.55 909.237 1264.02 910.268 1261.39 910.267V910.267Z" fill="#231F20"/>
<path d="M2298.9 244.502H222.696C221.363 244.502 220.085 243.972 219.143 243.03C218.2 242.088 217.671 240.809 217.671 239.477C217.697 238.152 218.234 236.889 219.171 235.952C220.108 235.015 221.371 234.478 222.696 234.452H2298.9C2300.23 234.452 2301.51 234.982 2302.45 235.924C2303.39 236.866 2303.92 238.144 2303.92 239.477C2303.92 240.809 2303.39 242.088 2302.45 243.03C2301.51 243.972 2300.23 244.502 2298.9 244.502Z" fill="#231F20"/>
<path d="M99.4885 404.89H48.1362C24.3262 404.89 5.02441 424.191 5.02441 448.001V738.428C5.02441 762.238 24.3262 781.54 48.1362 781.54H99.4885C123.298 781.54 142.6 762.238 142.6 738.428V448.001C142.6 424.191 123.298 404.89 99.4885 404.89Z" fill="#231F20"/>
<path d="M99.4888 786.565H48.237C35.5304 786.566 23.3366 781.553 14.3047 772.615C5.27286 763.677 0.132361 751.536 0 738.831V448.002C0.0266164 435.226 5.12052 422.982 14.1638 413.958C23.2071 404.934 35.4612 399.865 48.237 399.865H99.4888C112.247 399.892 124.476 404.972 133.497 413.993C142.519 423.015 147.599 435.243 147.625 448.002V738.831C147.493 751.519 142.367 763.645 133.356 772.58C124.346 781.515 112.178 786.539 99.4888 786.565V786.565ZM48.237 409.915C38.1264 409.915 28.4284 413.924 21.2697 421.064C14.111 428.204 10.076 437.891 10.0494 448.002V738.831C10.076 748.941 14.111 758.628 21.2697 765.768C28.4284 772.908 38.1264 776.918 48.237 776.918H99.4888C109.59 776.918 119.278 772.905 126.42 765.762C133.563 758.619 137.576 748.932 137.576 738.831V448.002C137.576 437.9 133.563 428.213 126.42 421.07C119.278 413.927 109.59 409.915 99.4888 409.915H48.237Z" fill="#231F20"/>
<path d="M198.072 279.272H222.693V424.988H198.072V279.272Z" fill="#231F20"/>
<path d="M222.693 430.112H198.073C196.74 430.112 195.462 429.583 194.52 428.64C193.577 427.698 193.048 426.42 193.048 425.087V279.271C193.048 278.616 193.178 277.967 193.432 277.363C193.686 276.759 194.057 276.212 194.525 275.753C194.993 275.294 195.548 274.934 196.157 274.692C196.766 274.451 197.417 274.333 198.073 274.347H222.693C223.349 274.333 224 274.451 224.609 274.692C225.218 274.934 225.773 275.294 226.241 275.753C226.709 276.212 227.08 276.759 227.334 277.363C227.588 277.967 227.718 278.616 227.718 279.271V425.087C227.718 426.42 227.189 427.698 226.246 428.64C225.304 429.583 224.026 430.112 222.693 430.112ZM202.595 420.063H217.267V284.296H203.097L202.595 420.063Z" fill="#231F20"/>
<path d="M73.8641 436.339C71.9038 436.393 69.9525 436.053 68.1258 435.34C66.299 434.627 64.6338 433.555 63.2285 432.187C61.8232 430.819 60.7064 429.183 59.944 427.376C59.1817 425.57 58.7893 423.628 58.79 421.667C58.6706 410.597 60.7429 399.613 64.8876 389.347C69.0322 379.082 75.1672 369.738 82.9391 361.854C90.7111 353.97 99.9663 347.702 110.171 343.41C120.377 339.119 131.33 336.89 142.401 336.851H198.074C202.072 336.851 205.906 338.439 208.733 341.266C211.56 344.093 213.148 347.927 213.148 351.925C213.148 355.923 211.56 359.757 208.733 362.584C205.906 365.411 202.072 366.999 198.074 366.999H142.401C128.222 366.999 114.623 372.631 104.597 382.658C94.5708 392.684 88.9381 406.282 88.9381 420.461C89.0196 424.559 87.4829 428.523 84.6612 431.495C81.8396 434.468 77.9602 436.208 73.8641 436.339V436.339Z" fill="#231F20"/>
<path d="M2423.4 781.535H2474.76C2498.57 781.535 2517.87 762.233 2517.87 738.423V447.997C2517.87 424.187 2498.57 404.885 2474.76 404.885H2423.4C2399.59 404.885 2380.29 424.187 2380.29 447.997V738.423C2380.29 762.233 2399.59 781.535 2423.4 781.535Z" fill="#231F20"/>
<path d="M2475.16 786.565H2423.91C2411.14 786.539 2398.91 781.462 2389.87 772.443C2380.83 763.424 2375.73 751.196 2375.67 738.429V448.002C2375.73 435.234 2380.83 423.006 2389.87 413.987C2398.91 404.969 2411.14 399.892 2423.91 399.865H2475.16C2487.92 399.892 2500.15 404.972 2509.17 413.993C2518.19 423.015 2523.27 435.243 2523.3 448.002V738.831C2523.17 751.519 2518.04 763.645 2509.03 772.58C2500.02 781.515 2487.85 786.539 2475.16 786.565V786.565ZM2423.91 409.915C2413.8 409.915 2404.1 413.924 2396.94 421.064C2389.79 428.204 2385.75 437.891 2385.72 448.002V738.831C2385.75 748.941 2389.79 758.628 2396.94 765.768C2404.1 772.908 2413.8 776.918 2423.91 776.918H2475.16C2485.27 776.918 2494.97 772.908 2502.13 765.768C2509.29 758.628 2513.32 748.941 2513.35 738.831V448.002C2513.32 437.891 2509.29 428.204 2502.13 421.064C2494.97 413.924 2485.27 409.915 2475.16 409.915H2423.91Z" fill="#231F20"/>
<path d="M2324.82 425.086H2300.2V279.37H2324.82V425.086Z" fill="#231F20"/>
<path d="M2324.42 430.111H2299.7C2298.37 430.085 2297.11 429.548 2296.17 428.611C2295.24 427.674 2294.7 426.411 2294.67 425.086V279.27C2294.7 277.955 2295.24 276.702 2296.18 275.782C2297.12 274.861 2298.38 274.345 2299.7 274.346H2324.42C2325.72 274.346 2326.98 274.865 2327.9 275.788C2328.82 276.711 2329.34 277.964 2329.34 279.27V425.086C2329.34 426.402 2328.83 427.665 2327.91 428.604C2326.99 429.544 2325.73 430.085 2324.42 430.111ZM2304.32 420.062H2318.99V284.295H2304.32V420.062Z" fill="#231F20"/>
<path d="M2449.03 436.339C2447.07 436.393 2445.12 436.053 2443.29 435.34C2441.46 434.627 2439.8 433.555 2438.39 432.187C2436.99 430.819 2435.87 429.183 2435.11 427.376C2434.35 425.57 2433.96 423.628 2433.96 421.667C2434.08 414.548 2432.78 407.476 2430.14 400.861C2427.51 394.247 2423.59 388.222 2418.6 383.136C2413.62 378.05 2407.68 374.004 2401.12 371.234C2394.56 368.464 2387.51 367.024 2380.39 366.999H2324.42C2320.42 366.999 2316.59 365.411 2313.76 362.584C2310.93 359.757 2309.34 355.923 2309.34 351.925C2309.34 347.927 2310.93 344.093 2313.76 341.266C2316.59 338.439 2320.42 336.851 2324.42 336.851H2379.99C2402.18 336.851 2423.45 345.656 2439.15 361.334C2454.84 377.011 2463.68 398.277 2463.7 420.461C2463.81 424.499 2462.34 428.42 2459.6 431.387C2456.86 434.354 2453.06 436.131 2449.03 436.339V436.339Z" fill="#231F20"/>
<path d="M1875.11 1169.34L2228.85 882.234Z" fill="white"/>
<path d="M1875.11 1174.37C1874.09 1174.34 1873.11 1174.01 1872.29 1173.41C1871.47 1172.81 1870.85 1171.98 1870.52 1171.02C1870.18 1170.06 1870.14 1169.03 1870.4 1168.05C1870.67 1167.07 1871.22 1166.19 1871.99 1165.53L2225.63 878.32C2226.69 877.505 2228.01 877.124 2229.34 877.255C2230.66 877.385 2231.89 878.018 2232.77 879.023C2233.59 880.081 2233.97 881.421 2233.82 882.755C2233.67 884.089 2233 885.311 2231.96 886.158L1878.32 1173.27C1877.43 1174.03 1876.28 1174.43 1875.11 1174.37V1174.37Z" fill="#231F20"/>
<path d="M650.997 1169.34L297.359 882.234Z" fill="white"/>
<path d="M650.994 1174.37C649.827 1174.39 648.69 1174 647.779 1173.27L294.443 886.157C293.403 885.318 292.74 884.1 292.599 882.771C292.457 881.442 292.85 880.112 293.689 879.073C294.529 878.033 295.747 877.37 297.075 877.228C298.404 877.087 299.734 877.479 300.774 878.319L654.411 1165.53C654.935 1165.93 655.373 1166.44 655.698 1167.01C656.024 1167.59 656.23 1168.22 656.305 1168.88C656.38 1169.53 656.322 1170.2 656.135 1170.83C655.948 1171.46 655.635 1172.05 655.215 1172.56C654.701 1173.17 654.051 1173.65 653.319 1173.97C652.586 1174.28 651.79 1174.42 650.994 1174.37V1174.37Z" fill="#231F20"/>
<path d="M1682.37 753.303C1681.59 753.295 1680.82 753.11 1680.12 752.762C1679.43 752.414 1678.82 751.911 1678.35 751.293C1677.95 750.765 1677.66 750.164 1677.5 749.525C1677.34 748.886 1677.3 748.221 1677.39 747.567C1677.49 746.914 1677.71 746.286 1678.04 745.718C1678.38 745.15 1678.82 744.654 1679.35 744.258L2139.01 400.871C2139.53 400.393 2140.14 400.029 2140.81 399.804C2141.48 399.578 2142.19 399.497 2142.89 399.564C2143.6 399.631 2144.28 399.846 2144.89 400.194C2145.51 400.542 2146.04 401.015 2146.46 401.583C2146.88 402.152 2147.17 402.802 2147.32 403.492C2147.48 404.181 2147.48 404.895 2147.34 405.587C2147.19 406.278 2146.9 406.931 2146.49 407.504C2146.08 408.077 2145.55 408.556 2144.94 408.911L1685.38 752.298C1684.52 752.957 1683.45 753.31 1682.37 753.303V753.303Z" fill="#D1D3D4"/>
<path d="M677.229 411.421C677.229 411.421 661.753 457.447 668.888 478.852L690.393 481.163L701.548 409.109L677.229 411.421Z" fill="white"/>
<path d="M690.396 486.191H689.793L668.388 483.98C667.413 483.893 666.485 483.523 665.717 482.916C664.95 482.309 664.376 481.492 664.067 480.563C656.53 457.852 671.805 411.926 672.508 410.218C672.821 409.31 673.383 408.508 674.129 407.904C674.875 407.3 675.776 406.918 676.729 406.801L701.048 404.489C701.813 404.418 702.584 404.525 703.299 404.805C704.015 405.084 704.655 405.526 705.169 406.097C705.721 406.636 706.131 407.304 706.359 408.041C706.587 408.779 706.627 409.561 706.475 410.318L695.32 482.271C695.068 483.388 694.443 484.385 693.548 485.098C692.652 485.81 691.54 486.196 690.396 486.191V486.191ZM672.81 474.232L686.075 475.639L695.622 414.74L681.05 416.147C676.829 429.613 669.594 458.253 672.81 474.232Z" fill="#231F20"/>
<path d="M843.648 411.421C843.648 411.421 859.124 457.447 851.989 478.852L830.483 481.163L819.328 409.109L843.648 411.421Z" fill="white"/>
<path d="M830.482 486.185C829.28 486.173 828.122 485.73 827.219 484.937C826.315 484.145 825.726 483.054 825.558 481.864L814.403 409.91C814.251 409.154 814.291 408.371 814.519 407.634C814.747 406.897 815.156 406.228 815.709 405.69C816.218 405.113 816.858 404.665 817.574 404.386C818.291 404.106 819.064 404.002 819.83 404.082L844.049 406.393C845.019 406.492 845.942 406.866 846.707 407.472C847.473 408.077 848.049 408.888 848.37 409.81C849.073 411.82 864.348 457.745 856.811 480.156C856.502 481.084 855.928 481.902 855.161 482.509C854.393 483.116 853.465 483.485 852.49 483.572L831.085 485.783L830.482 486.185ZM825.256 414.734L835.306 475.633L848.571 474.226C851.787 458.248 844.551 429.607 840.33 416.141L825.256 414.734Z" fill="#231F20"/>
<path d="M932.879 893.292L960.616 686.376C960.616 686.376 856.102 628.391 818.216 621.055C802.639 617.939 682.851 623.668 682.851 623.668C682.851 623.668 527.287 679.14 522.061 686.376C519.348 690.194 542.16 795.009 565.273 893.292H932.879Z" fill="#68E1FD"/>
<path d="M826.261 623.665C814.058 660.684 799.006 696.701 781.24 731.395L779.632 734.208C764.96 758.226 755.212 776.014 755.212 776.014C745.099 761.123 735.806 745.691 727.375 729.787C709.534 695.748 694.64 660.245 682.856 623.665C707.534 615.008 733.592 610.954 759.734 611.707C805.861 611.305 826.261 623.665 826.261 623.665Z" fill="#231F20"/>
<path d="M755.209 781.042C754.391 781.038 753.584 780.846 752.852 780.48C752.12 780.114 751.482 779.584 750.988 778.932C740.821 763.828 731.462 748.196 722.951 732.102C704.947 697.81 689.919 662.037 678.03 625.176C677.631 623.988 677.7 622.693 678.222 621.554C678.745 620.415 679.683 619.518 680.844 619.046C706.129 610.142 732.833 605.953 759.631 606.685C807.064 606.685 828.067 618.845 828.871 619.348C829.837 619.958 830.576 620.869 830.976 621.939C831.375 623.01 831.412 624.183 831.082 625.277C818.755 662.616 803.534 698.938 785.558 733.91L783.95 736.724C769.58 760.441 759.631 778.329 759.53 778.53C759.133 779.28 758.54 779.91 757.815 780.352C757.09 780.794 756.259 781.032 755.41 781.042H755.209ZM689.084 626.684C700.609 661.286 714.926 694.894 731.894 727.177C739.23 741.045 746.969 754.21 754.807 766.169C759.028 758.732 766.263 746.07 774.906 731.298L776.815 728.785C793.808 695.733 808.254 661.432 820.027 626.181C800.844 618.681 780.31 615.259 759.731 616.132C735.786 616.079 711.969 619.636 689.084 626.684V626.684Z" fill="#231F20"/>
<path d="M697.327 592.01L812.593 592.412L810.583 636.428H729.183L689.589 617.435L697.327 592.01Z" fill="#231F20"/>
<path d="M810.584 641.452H729.184C728.455 641.603 727.703 641.603 726.974 641.452L687.48 622.458C686.401 621.953 685.541 621.074 685.061 619.984C684.58 618.894 684.511 617.667 684.867 616.529L692.504 591.104C692.809 590.061 693.443 589.144 694.313 588.492C695.183 587.839 696.241 587.487 697.328 587.487H812.594C813.269 587.471 813.94 587.597 814.563 587.856C815.186 588.116 815.748 588.504 816.212 588.994C816.703 589.474 817.083 590.056 817.326 590.698C817.569 591.34 817.669 592.028 817.619 592.712L815.609 636.729C815.532 638.008 814.969 639.21 814.035 640.088C813.101 640.966 811.866 641.454 810.584 641.452V641.452ZM730.189 631.402H805.66L807.268 597.436H700.946L695.62 615.223L730.189 631.402Z" fill="#231F20"/>
<path d="M705.362 483.976C701.845 455.838 655.618 447.296 656.824 480.358C656.777 491.807 660.761 502.907 668.079 511.712C671.819 516 676.747 519.082 682.239 520.566C687.731 522.051 693.54 521.873 698.931 520.053" fill="white"/>
<path d="M690.188 526.786C685.313 526.722 680.503 525.654 676.06 523.648C671.616 521.642 667.634 518.742 664.361 515.129C656.247 505.436 651.8 493.199 651.799 480.559C651.349 477.375 651.565 474.133 652.433 471.037C653.302 467.941 654.804 465.059 656.845 462.575C658.886 460.09 661.421 458.056 664.289 456.602C667.157 455.148 670.295 454.306 673.506 454.129C682.188 453.496 690.792 456.152 697.606 461.57C704.42 466.987 708.947 474.771 710.286 483.373C710.446 484.705 710.07 486.047 709.241 487.102C708.412 488.158 707.197 488.841 705.865 489C704.532 489.16 703.191 488.784 702.135 487.955C701.08 487.126 700.397 485.911 700.237 484.579C699.078 478.64 695.798 473.326 691.008 469.627C686.219 465.929 680.248 464.099 674.209 464.48C669.385 464.48 661.246 467.495 661.748 480.559C661.68 490.829 665.239 500.794 671.797 508.697C674.843 512.223 678.856 514.779 683.339 516.047C687.823 517.315 692.58 517.241 697.021 515.832C698.275 515.334 699.674 515.35 700.915 515.877C702.157 516.404 703.141 517.399 703.654 518.646C703.899 519.26 704.02 519.916 704.011 520.576C704.002 521.237 703.863 521.889 703.602 522.496C703.34 523.102 702.962 523.652 702.488 524.112C702.014 524.572 701.454 524.934 700.84 525.178C697.415 526.349 693.806 526.894 690.188 526.786V526.786Z" fill="#231F20"/>
<path d="M805.863 483.976C809.381 455.838 855.507 447.296 854.402 480.358C854.449 491.807 850.464 502.907 843.147 511.712C839.391 516.009 834.446 519.094 828.936 520.579C823.426 522.064 817.6 521.881 812.194 520.053" fill="white"/>
<path d="M821.029 526.787C817.383 526.791 813.77 526.11 810.376 524.777C809.137 524.284 808.144 523.319 807.617 522.094C807.089 520.869 807.07 519.484 807.563 518.245C808.056 517.006 809.021 516.013 810.246 515.485C811.471 514.957 812.855 514.938 814.095 515.431C818.551 516.848 823.325 516.927 827.826 515.659C832.327 514.39 836.358 511.831 839.419 508.296C845.993 500.401 849.554 490.431 849.468 480.158C849.971 467.094 841.831 464.481 837.007 464.079C830.968 463.698 824.997 465.528 820.208 469.226C815.419 472.924 812.139 478.239 810.979 484.178C810.804 485.496 810.114 486.691 809.059 487.501C808.004 488.311 806.671 488.67 805.352 488.499C804.693 488.425 804.057 488.219 803.48 487.894C802.903 487.568 802.398 487.13 801.994 486.604C801.591 486.079 801.297 485.477 801.132 484.836C800.966 484.194 800.932 483.526 801.031 482.871C802.393 474.287 806.929 466.528 813.741 461.131C820.553 455.734 829.144 453.091 837.811 453.728C841.011 453.934 844.135 454.796 846.988 456.259C849.841 457.722 852.364 459.755 854.399 462.233C856.434 464.711 857.938 467.581 858.819 470.664C859.7 473.747 859.937 476.979 859.518 480.158C859.721 492.92 855.335 505.33 847.157 515.13C843.858 518.79 839.828 521.719 835.328 523.726C830.828 525.734 825.957 526.777 821.029 526.787Z" fill="#231F20"/>
<path d="M701.748 623.767C720.055 631.7 739.781 635.837 759.733 635.927C796.313 637.234 802.443 627.285 802.443 627.285L801.538 607.186L799.528 561.662L797.619 519.053L714.008 516.139L709.989 550.809L708.783 561.964L701.748 623.767Z" fill="white"/>
<path d="M765.867 641.05H759.535C738.793 640.892 718.293 636.587 699.239 628.388C698.348 627.904 697.617 627.171 697.135 626.279C696.654 625.387 696.442 624.374 696.526 623.364L708.786 516.137C708.959 514.885 709.588 513.742 710.552 512.926C711.517 512.11 712.749 511.678 714.012 511.715L797.623 514.629C798.886 514.679 800.084 515.203 800.978 516.097C801.872 516.991 802.397 518.19 802.446 519.453L807.27 627.182C807.314 628.183 807.032 629.17 806.466 629.996C805.461 631.905 798.125 641.05 765.867 641.05V641.05ZM707.178 620.952C724.013 627.337 741.833 630.738 759.837 631.001C785.061 632.006 794.507 627.283 797.321 625.273L792.799 524.779L718.433 522.267L707.178 620.952Z" fill="#231F20"/>
<path d="M828.769 408.101L825.252 509.6C825.146 513.937 824.574 518.25 823.543 522.463C820.078 536.807 811.763 549.513 800.007 558.431C788.25 567.35 773.773 571.932 759.026 571.404H751.489C737.571 571.029 724.155 566.127 713.274 557.44C702.393 548.753 694.641 536.756 691.193 523.267C689.689 517.361 689.046 511.268 689.283 505.178L692.801 403.78C692.801 403.78 708.679 424.582 754.001 423.879C779.783 424.206 805.317 418.818 828.769 408.101V408.101Z" fill="white"/>
<path d="M761.244 576.532H758.832H751.295C736.268 576.051 721.806 570.691 710.094 561.264C698.382 551.836 690.056 538.853 686.376 524.275C684.709 517.712 683.998 510.942 684.266 504.176L687.783 402.778C687.804 401.732 688.151 400.718 688.775 399.879C689.399 399.039 690.27 398.416 691.266 398.095C692.262 397.774 693.333 397.772 694.33 398.089C695.327 398.406 696.2 399.026 696.828 399.864C696.828 399.864 711.801 418.355 752.702 418.355H754.009C778.835 418.502 803.404 413.328 826.062 403.18C826.826 402.739 827.693 402.507 828.575 402.507C829.457 402.507 830.323 402.739 831.087 403.18C831.839 403.636 832.452 404.29 832.859 405.069C833.266 405.848 833.453 406.724 833.399 407.602L829.881 509.1C829.724 513.77 829.119 518.414 828.072 522.968C824.524 538.082 816.013 551.57 803.899 561.279C791.785 570.989 776.768 576.359 761.244 576.532V576.532ZM697.833 414.234L694.717 504.679C694.439 510.426 695.015 516.184 696.426 521.763C699.621 534.107 706.718 545.089 716.659 553.074C726.6 561.06 738.854 565.621 751.597 566.08H759.134C772.729 566.609 786.086 562.399 796.92 554.168C807.753 545.937 815.391 534.198 818.525 520.959C819.517 517.081 820.057 513.102 820.133 509.1L823.349 415.742C801.343 424.185 777.981 428.544 754.411 428.605C734.522 429.746 714.766 424.728 697.833 414.234V414.234Z" fill="#231F20"/>
<path d="M771.997 547.888C759.634 547.616 747.458 544.811 736.221 539.648C735.018 539.117 734.07 538.136 733.581 536.915C733.093 535.694 733.102 534.33 733.609 533.115C734.14 531.886 735.132 530.914 736.372 530.407C737.612 529.9 739 529.898 740.241 530.402C769.887 543.165 785.664 535.628 785.765 535.527C786.951 534.931 788.326 534.829 789.587 535.244C790.849 535.658 791.895 536.555 792.498 537.738C792.81 538.317 793.004 538.952 793.066 539.607C793.129 540.262 793.06 540.923 792.864 541.55C792.667 542.178 792.346 542.76 791.921 543.261C791.496 543.763 790.974 544.174 790.388 544.471C784.59 546.971 778.306 548.139 771.997 547.888V547.888Z" fill="#231F20"/>
<path d="M726.465 478.949C728.907 478.949 730.886 474.495 730.886 469.001C730.886 463.506 728.907 459.052 726.465 459.052C724.023 459.052 722.043 463.506 722.043 469.001C722.043 474.495 724.023 478.949 726.465 478.949Z" fill="#231F20"/>
<path d="M791.187 478.949C793.629 478.949 795.609 474.495 795.609 469.001C795.609 463.506 793.629 459.052 791.187 459.052C788.745 459.052 786.766 463.506 786.766 469.001C786.766 474.495 788.745 478.949 791.187 478.949Z" fill="#231F20"/>
<path d="M812.59 592.412C810.982 592.412 759.228 635.926 759.228 635.926L791.184 673.31L823.242 614.923L812.59 592.412Z" fill="white"/>
<path d="M791.184 678.531C790.457 678.506 789.744 678.332 789.087 678.021C788.431 677.71 787.845 677.268 787.365 676.722L755.408 639.439C754.969 638.931 754.636 638.34 754.429 637.702C754.222 637.063 754.145 636.389 754.202 635.72C754.239 635.054 754.42 634.404 754.732 633.814C755.044 633.224 755.481 632.709 756.011 632.304C809.172 587.584 810.278 587.584 812.589 587.584C813.531 587.582 814.454 587.845 815.254 588.342C816.053 588.84 816.697 589.552 817.111 590.398L827.764 612.908C828.134 613.623 828.327 614.415 828.327 615.22C828.327 616.024 828.134 616.817 827.764 617.531L795.706 675.918C795.327 676.62 794.78 677.217 794.113 677.655C793.447 678.094 792.682 678.36 791.887 678.43L791.184 678.531ZM766.764 636.524L790.681 664.462L818.016 614.717L811.082 599.945C801.736 606.979 781.335 623.963 766.764 636.524Z" fill="#231F20"/>
<path d="M697.33 592.01C699.039 592.01 759.737 635.926 759.737 635.926L722.655 673.309L685.673 614.922L697.33 592.01Z" fill="white"/>
<path d="M722.652 678.537H722.149C721.391 678.473 720.659 678.23 720.013 677.828C719.366 677.426 718.825 676.877 718.431 676.226L681.449 617.94C681.027 617.17 680.806 616.306 680.806 615.427C680.806 614.549 681.027 613.685 681.449 612.915L693.006 590.002C693.452 589.19 694.105 588.51 694.9 588.033C695.694 587.557 696.602 587.3 697.528 587.289C699.639 587.289 700.845 587.289 762.849 632.21C763.437 632.621 763.923 633.16 764.271 633.787C764.62 634.414 764.821 635.112 764.859 635.828C764.94 636.545 764.855 637.271 764.611 637.951C764.367 638.63 763.971 639.244 763.452 639.747L726.571 676.829C726.079 677.379 725.474 677.817 724.798 678.111C724.122 678.406 723.389 678.552 722.652 678.537V678.537ZM691.499 614.824L723.556 665.071L751.996 636.33C733.806 623.266 709.085 605.579 699.337 598.946L691.499 614.824Z" fill="#231F20"/>
<path d="M672.602 421.274C672.602 421.274 683.656 451.422 761.94 451.422C815.604 451.422 851.581 431.324 853.892 421.274C823.395 413.578 792.086 409.563 760.634 409.315C731.091 411.673 701.702 415.665 672.602 421.274V421.274Z" fill="#231F20"/>
<path d="M761.845 456.045C681.45 456.045 668.386 424.39 667.984 423.083C667.664 422.426 667.498 421.704 667.498 420.973C667.498 420.242 667.664 419.52 667.984 418.863C668.33 418.216 668.817 417.654 669.408 417.22C669.999 416.785 670.68 416.488 671.401 416.35C700.734 410.697 730.358 406.671 760.137 404.291C792.069 404.473 823.86 408.556 854.802 416.451C855.446 416.59 856.054 416.861 856.59 417.245C857.125 417.629 857.576 418.118 857.915 418.683C858.254 419.248 858.474 419.876 858.561 420.529C858.647 421.183 858.599 421.846 858.42 422.48C855.204 435.846 814.906 456.045 761.644 456.045H761.845ZM681.45 424.792C689.088 432.53 709.89 445.996 761.845 445.996C805.56 445.996 834.703 432.228 844.954 424.39C817.416 417.702 789.178 414.328 760.84 414.34C734.171 416.36 707.634 419.849 681.35 424.792H681.45Z" fill="#231F20"/>
<path d="M670.296 414.139C670.296 414.139 653.715 397.055 657.232 380.574C660.749 364.093 702.755 338.769 744.762 334.347C786.768 329.925 837.618 351.431 852.994 365.199C868.369 378.966 874.901 400.874 852.994 414.139C852.994 414.139 754.208 391.026 670.296 414.139Z" fill="#231F20"/>
<path d="M670.288 419.156C669.514 419.184 668.745 419.025 668.045 418.693C667.345 418.36 666.736 417.864 666.269 417.247C665.465 416.443 647.878 398.052 651.999 379.059C656.119 360.066 702.245 333.234 743.85 328.812C783.752 326.508 823.255 337.81 855.9 360.87C860.884 364.868 864.887 369.953 867.604 375.735C870.322 381.518 871.68 387.845 871.577 394.234C870.992 399.224 869.193 403.996 866.338 408.13C863.482 412.265 859.657 415.636 855.197 417.95C854.038 418.604 852.682 418.818 851.378 418.553C850.474 418.553 752.894 395.942 671.193 418.553L670.288 419.156ZM755.306 399.057C787.821 399.13 820.245 402.497 852.082 409.107C854.807 407.566 857.135 405.41 858.88 402.81C860.624 400.211 861.738 397.239 862.131 394.133C862.124 389.319 861.015 384.57 858.89 380.251C856.765 375.931 853.68 372.155 849.871 369.211C819.318 348.03 782.579 337.634 745.458 339.666C704.456 343.886 665.063 368.708 662.349 381.873C662.13 386.807 662.907 391.734 664.634 396.362C666.361 400.989 669.001 405.221 672.399 408.805C699.496 401.952 727.356 398.575 755.306 398.756V399.057Z" fill="#231F20"/>
<path d="M670.295 414.139L672.606 421.274C701.07 415.646 729.935 412.286 758.93 411.225C790.809 411.954 822.572 415.315 853.897 421.274L856.108 412.028C827.444 402.721 797.396 398.405 767.271 399.266C719.336 401.175 684.465 408.109 670.295 414.139V414.139Z" fill="white"/>
<path d="M760.738 409.312C769.951 409.312 777.419 401.843 777.419 392.63C777.419 383.417 769.951 375.948 760.738 375.948C751.524 375.948 744.056 383.417 744.056 392.63C744.056 401.843 751.524 409.312 760.738 409.312Z" fill="#68E1FD"/>
<path d="M763.146 465.186C763.146 465.186 786.26 514.327 777.517 516.638C770.1 517.902 762.523 517.902 755.106 516.638" fill="white"/>
<path d="M767.77 522.67C763.259 522.666 758.756 522.296 754.304 521.564C752.971 521.338 751.783 520.591 751.001 519.489C750.219 518.386 749.907 517.018 750.134 515.685C750.36 514.353 751.107 513.165 752.209 512.383C753.312 511.601 754.68 511.288 756.012 511.515C762.147 512.365 768.369 512.365 774.503 511.515C771.203 496.199 765.863 481.395 758.625 467.499C758.337 466.899 758.171 466.248 758.136 465.584C758.102 464.919 758.2 464.254 758.424 463.628C758.648 463.002 758.995 462.426 759.443 461.935C759.892 461.443 760.434 461.046 761.037 460.766C762.238 460.215 763.607 460.16 764.848 460.611C766.09 461.062 767.103 461.984 767.67 463.177C775.408 479.658 787.769 508.601 783.548 517.645C783.086 518.626 782.414 519.495 781.581 520.189C780.748 520.883 779.773 521.387 778.724 521.665C775.131 522.466 771.45 522.804 767.77 522.67V522.67Z" fill="#231F20"/>
<path d="M708.785 888.065C707.79 888.065 706.833 887.677 706.12 886.982C705.407 886.287 704.993 885.342 704.967 884.347V825.96C704.974 825.365 705.124 824.781 705.404 824.257C705.684 823.732 706.085 823.282 706.575 822.945C756.821 785.863 796.014 718.532 822.645 622.661C822.777 622.186 823.001 621.741 823.305 621.353C823.609 620.965 823.986 620.64 824.415 620.397C824.844 620.154 825.317 619.999 825.807 619.939C826.296 619.879 826.793 619.916 827.268 620.048C827.743 620.18 828.187 620.404 828.575 620.708C828.964 621.012 829.289 621.389 829.531 621.818C829.774 622.248 829.93 622.72 829.99 623.21C830.049 623.699 830.012 624.196 829.88 624.671C803.149 721.245 763.655 789.581 712.504 827.869V884.347C712.504 885.333 712.112 886.278 711.415 886.976C710.717 887.673 709.772 888.065 708.785 888.065V888.065Z" fill="#231F20"/>
<path d="M726.572 832.893C725.874 832.898 725.19 832.702 724.602 832.327C724.014 831.953 723.546 831.416 723.255 830.782C723.033 830.341 722.901 829.86 722.866 829.367C722.832 828.874 722.896 828.379 723.055 827.912C723.214 827.444 723.465 827.012 723.793 826.643C724.12 826.273 724.519 825.972 724.964 825.758C775.814 801.237 830.08 771.592 832.995 764.356C832.995 759.03 817.921 745.765 803.952 736.72C803.369 736.351 802.9 735.826 802.598 735.204C802.296 734.583 802.174 733.89 802.244 733.203C802.293 732.518 802.537 731.861 802.946 731.31C803.356 730.758 803.914 730.334 804.555 730.088C820.935 723.355 847.667 711.798 853.294 708.281C854.098 701.347 843.848 665.571 833.196 633.815C833.039 633.347 832.978 632.852 833.015 632.359C833.052 631.867 833.187 631.387 833.411 630.948C833.636 630.508 833.946 630.117 834.323 629.799C834.7 629.48 835.137 629.24 835.607 629.092C836.54 628.772 837.562 628.836 838.448 629.269C839.333 629.703 840.011 630.47 840.331 631.403C866.258 707.879 860.429 711.798 858.62 713.808C844.153 721.373 829.254 728.084 814.001 733.907C824.051 740.841 840.733 754.005 840.532 764.055C840.532 776.013 770.186 811.588 728.381 831.787C727.861 832.278 727.245 832.654 726.572 832.893V832.893Z" fill="#231F20"/>
<path d="M738.229 787.067H737.023C717.36 780.295 698.437 771.54 680.546 760.938C667.18 750.889 675.622 716.219 679.34 703.355C667.482 701.848 641.152 697.828 635.123 689.889C627.887 679.84 653.815 650.697 669.894 634.015C670.232 633.646 670.644 633.352 671.103 633.151C671.561 632.95 672.056 632.846 672.557 632.846C673.057 632.846 673.552 632.95 674.011 633.151C674.469 633.352 674.881 633.646 675.22 634.015C675.575 634.361 675.858 634.775 676.051 635.233C676.244 635.69 676.343 636.181 676.343 636.678C676.343 637.174 676.244 637.666 676.051 638.123C675.858 638.58 675.575 638.995 675.22 639.341C655.825 659.44 639.947 681.146 641.152 685.568C644.77 690.392 668.688 694.813 684.566 696.421C685.121 696.471 685.657 696.651 686.128 696.948C686.6 697.245 686.994 697.65 687.279 698.13C687.608 698.589 687.825 699.119 687.912 699.678C688 700.236 687.955 700.808 687.781 701.346C682.154 718.63 676.426 748.477 685.068 755.009C702.309 765.146 720.522 773.529 739.435 780.032C740.357 780.393 741.103 781.097 741.515 781.997C741.928 782.897 741.975 783.922 741.646 784.856C741.376 785.533 740.902 786.11 740.29 786.506C739.678 786.902 738.958 787.098 738.229 787.067V787.067Z" fill="#231F20"/>
<path d="M593.314 893.287C611.202 856.606 623.462 829.172 623.462 829.172L522.064 686.37C522.064 686.37 479.656 795.607 443.88 893.287H593.314Z" fill="#68E1FD"/>
<path d="M1035.49 893.287C999.716 795.607 960.624 686.37 960.624 686.37L856.11 829.272C856.11 829.272 868.17 856.707 886.258 893.387L1035.49 893.287Z" fill="#68E1FD"/>
<path d="M571.608 779.834C570.627 779.815 569.692 779.419 568.995 778.729C561.988 772.511 553.613 768.034 544.551 765.659C535.489 763.285 525.995 763.08 516.839 765.062C516.357 765.154 515.862 765.151 515.381 765.052C514.901 764.953 514.445 764.76 514.039 764.485C513.633 764.209 513.285 763.857 513.016 763.447C512.746 763.037 512.56 762.579 512.467 762.097C512.375 761.615 512.378 761.12 512.477 760.64C512.576 760.159 512.769 759.703 513.044 759.297C513.319 758.891 513.672 758.544 514.082 758.274C514.491 758.004 514.95 757.818 515.432 757.725C525.787 755.458 536.534 755.698 546.777 758.425C557.021 761.152 566.464 766.287 574.321 773.403C574.677 773.749 574.959 774.163 575.152 774.62C575.345 775.078 575.445 775.569 575.445 776.066C575.445 776.562 575.345 777.053 575.152 777.511C574.959 777.968 574.677 778.382 574.321 778.729C573.971 779.092 573.549 779.378 573.081 779.568C572.614 779.759 572.112 779.849 571.608 779.834V779.834Z" fill="#231F20"/>
<path d="M912.38 779.83C911.399 779.811 910.464 779.415 909.767 778.725C909.411 778.378 909.129 777.964 908.936 777.507C908.743 777.049 908.644 776.558 908.644 776.061C908.644 775.565 908.743 775.074 908.936 774.616C909.129 774.159 909.411 773.745 909.767 773.398C917.646 766.318 927.091 761.206 937.327 758.481C947.563 755.755 958.3 755.495 968.656 757.721C969.138 757.814 969.597 758 970.006 758.27C970.416 758.539 970.769 758.887 971.044 759.293C971.319 759.699 971.512 760.155 971.611 760.636C971.71 761.116 971.713 761.611 971.621 762.093C971.528 762.575 971.342 763.033 971.072 763.443C970.803 763.853 970.455 764.205 970.049 764.48C969.643 764.756 969.187 764.948 968.707 765.047C968.226 765.146 967.731 765.15 967.249 765.057C958.091 763.132 948.611 763.364 939.559 765.736C930.506 768.109 922.13 772.555 915.093 778.725C914.366 779.43 913.393 779.826 912.38 779.83V779.83Z" fill="#231F20"/>
<path d="M744.051 691.395C686.589 691.48 631.201 712.883 588.614 751.461C546.026 790.038 519.267 843.046 513.519 900.22H560.449C566.003 855.44 587.732 814.233 621.546 784.354C655.36 754.475 698.928 737.984 744.051 737.984C789.175 737.984 832.742 754.475 866.556 784.354C900.37 814.233 922.099 855.44 927.653 900.22H974.584C968.835 843.046 942.076 790.038 899.489 751.461C856.901 712.883 801.514 691.48 744.051 691.395V691.395Z" fill="#231F20"/>
<path d="M833.7 900.224H654.318C659.396 880.29 670.97 862.615 687.212 849.992C703.454 837.368 723.438 830.516 744.009 830.516C764.58 830.516 784.564 837.368 800.806 849.992C817.048 862.615 828.622 880.29 833.7 900.224V900.224Z" fill="#231F20"/>
<path d="M528.6 796.51C529.997 791.469 532.909 786.978 536.941 783.647C539.292 782.345 541.837 781.429 544.478 780.933C566.963 775.506 590.122 773.406 613.216 774.703C617.939 774.703 623.265 776.21 624.974 780.732C625.281 782.666 625.016 784.647 624.213 786.432C623.41 788.217 622.102 789.729 620.452 790.782C611.419 796.376 600.92 799.14 590.304 798.721C595.055 799.023 599.822 799.023 604.574 798.721C609.297 798.721 614.623 802.238 614.623 807.062C614.623 811.885 607.689 815.805 602.061 817.111L584.776 821.231C588.498 820.784 592.272 821.161 595.831 822.337C597.584 822.963 599.106 824.104 600.2 825.61C601.294 827.116 601.908 828.918 601.961 830.778C601.568 832.695 600.7 834.482 599.435 835.974C598.171 837.467 596.551 838.618 594.725 839.32C589.195 842.14 583.043 843.523 576.837 843.34C580.908 843.766 584.919 844.642 588.796 845.953C591.509 846.857 594.424 848.365 595.127 851.078C595.29 852.407 595.117 853.756 594.626 855.003C594.135 856.249 593.34 857.352 592.313 858.213C578.546 873.186 541.464 881.025 524.581 867.157C507.698 853.289 522.269 813.795 528.6 796.51Z" fill="white"/>
<path d="M549.195 879.525C539.19 880.003 529.325 877.022 521.258 871.084C501.159 855.005 515.228 818.023 522.665 798.226L523.871 794.809C525.476 788.735 529.001 783.342 533.92 779.434C536.763 777.805 539.852 776.651 543.065 776.017C566.078 770.477 589.779 768.344 613.411 769.686C624.767 770.389 628.585 775.313 629.691 779.735C630.263 782.564 629.965 785.499 628.834 788.155C627.704 790.81 625.795 793.06 623.36 794.608C621.053 796.461 618.478 797.952 615.722 799.03C618.001 801.178 619.338 804.14 619.44 807.27C619.44 811.491 617.531 818.827 603.462 822.344C605.71 824.888 606.897 828.197 606.778 831.59C606.332 834.386 605.173 837.02 603.413 839.238C601.652 841.456 599.351 843.183 596.729 844.252H595.925C597.813 845.627 599.164 847.617 599.744 849.88C600.121 852.02 599.951 854.22 599.248 856.276C598.545 858.332 597.332 860.177 595.724 861.638C583.074 873.333 566.422 879.735 549.195 879.525V879.525ZM533.317 798.326L532.011 801.743C525.981 817.923 513.52 851.99 527.589 863.346C541.658 874.702 576.128 868.371 588.488 855.005C589.221 854.252 589.801 853.365 590.197 852.392C589.271 851.685 588.211 851.172 587.081 850.885C583.533 849.668 579.859 848.859 576.128 848.473C574.84 848.298 573.667 847.639 572.846 846.632C572.025 845.624 571.618 844.343 571.706 843.046C571.807 841.784 572.381 840.607 573.312 839.75C574.244 838.893 575.465 838.419 576.731 838.424H577.937C582.927 838.415 587.847 837.245 592.307 835.007C595.02 833.6 596.729 831.891 596.829 830.585C596.93 829.279 595.523 827.771 593.814 827.068C590.911 826.233 587.869 825.993 584.871 826.364C583.636 826.335 582.45 825.879 581.515 825.072C580.58 824.266 579.955 823.159 579.745 821.942C579.564 820.709 579.857 819.452 580.566 818.427C581.275 817.401 582.346 816.682 583.564 816.415L600.749 812.396C605.974 811.19 609.492 809.079 609.492 807.27C609.492 805.462 606.678 804.155 603.864 803.854C602.092 803.703 600.31 803.703 598.538 803.854C595.343 804.092 592.13 803.889 588.991 803.251C587.804 802.987 586.752 802.303 586.032 801.323C585.311 800.344 584.97 799.136 585.072 797.924C585.167 796.713 585.698 795.577 586.566 794.727C587.435 793.877 588.582 793.371 589.795 793.302C599.46 793.799 609.053 791.384 617.33 786.368C619.34 784.76 620.345 782.951 620.144 782.147C619.943 781.343 617.531 780.037 612.908 779.735C590.324 778.418 567.668 780.45 545.678 785.765C543.597 786.184 541.596 786.93 539.749 787.976C536.587 790.552 534.333 794.074 533.317 798.025V798.326Z" fill="#231F20"/>
<path d="M962.629 796.512C961.232 791.471 958.32 786.98 954.288 783.649C951.937 782.347 949.392 781.431 946.751 780.935C924.267 775.503 901.107 773.404 878.013 774.705C873.29 774.705 867.963 776.212 866.255 780.734C865.958 782.678 866.238 784.666 867.059 786.452C867.881 788.238 869.209 789.744 870.878 790.784C879.903 796.395 890.408 799.161 901.026 798.723C896.274 799.025 891.508 799.025 886.756 798.723C882.033 798.723 876.706 802.24 876.706 807.064C876.706 811.887 883.54 815.807 889.268 817.113L906.452 821.233C902.731 820.792 898.959 821.169 895.398 822.339C893.645 822.965 892.123 824.106 891.029 825.612C889.935 827.118 889.321 828.92 889.268 830.78C889.678 832.69 890.552 834.468 891.815 835.959C893.077 837.449 894.688 838.604 896.504 839.322C902.034 842.142 908.186 843.525 914.392 843.342C910.321 843.768 906.31 844.645 902.433 845.955C899.719 846.859 896.805 848.367 896.102 851.08C895.966 852.408 896.15 853.748 896.64 854.99C897.129 856.232 897.91 857.337 898.915 858.215C912.683 873.188 949.765 881.027 966.749 867.159C983.732 853.291 968.96 813.797 962.629 796.512V796.512Z" fill="white"/>
<path d="M942.127 879.517C924.842 879.826 908.103 873.455 895.398 861.729C893.741 860.305 892.495 858.465 891.788 856.398C891.081 854.33 890.94 852.112 891.378 849.972C891.932 847.723 893.246 845.735 895.096 844.344H894.292C891.654 843.3 889.337 841.58 887.573 839.358C885.809 837.135 884.661 834.488 884.243 831.682C884.141 829.996 884.382 828.308 884.952 826.719C885.522 825.129 886.409 823.672 887.559 822.436C873.39 818.919 871.48 811.583 871.581 807.362C871.699 804.256 872.992 801.311 875.199 799.122C872.454 798.022 869.882 796.532 867.561 794.7C865.136 793.142 863.235 790.89 862.106 788.238C860.977 785.586 860.672 782.655 861.23 779.827C862.335 775.707 866.154 770.783 877.51 769.778C901.142 768.451 924.841 770.584 947.856 776.109C951.031 776.767 954.083 777.92 956.9 779.526C961.825 783.429 965.351 788.824 966.949 794.901L968.256 798.318C975.592 818.417 989.259 855.097 969.562 871.176C961.63 876.99 951.954 879.932 942.127 879.517ZM901.026 852.484C901.473 853.398 902.048 854.244 902.734 854.996C915.095 868.362 949.262 875.095 963.633 863.337C978.004 851.58 965.241 818.015 959.211 801.735L957.905 798.318C956.855 794.407 954.648 790.904 951.574 788.268C949.689 787.227 947.656 786.481 945.544 786.058C923.546 780.791 900.898 778.76 878.314 780.028C873.691 780.028 871.38 781.435 871.078 782.44C870.777 783.445 871.882 785.053 873.993 786.661C882.227 791.692 891.792 794.109 901.427 793.595C902.76 793.475 904.086 793.889 905.113 794.747C906.14 795.604 906.785 796.834 906.904 798.167C907.024 799.5 906.61 800.825 905.752 801.853C904.895 802.88 903.665 803.524 902.332 803.644C899.027 804.316 895.644 804.519 892.283 804.247C890.51 804.096 888.729 804.096 886.956 804.247C884.143 804.247 881.429 806.156 881.429 807.664C881.429 809.171 884.947 811.583 890.072 812.789L907.256 816.809C908.474 817.075 909.546 817.794 910.254 818.82C910.963 819.846 911.256 821.102 911.075 822.336C910.904 823.57 910.289 824.699 909.346 825.513C908.403 826.327 907.196 826.769 905.95 826.758C902.952 826.387 899.909 826.626 897.006 827.461C896.238 827.73 895.555 828.197 895.026 828.815C894.497 829.432 894.14 830.179 893.991 830.978C893.991 832.285 895.8 833.993 898.513 835.4C903.316 837.785 908.629 838.958 913.989 838.817C914.631 838.776 915.274 838.864 915.882 839.076C916.489 839.287 917.048 839.618 917.525 840.049C918.003 840.48 918.389 841.001 918.662 841.584C918.935 842.166 919.089 842.797 919.114 843.44C919.228 844.742 918.829 846.036 918.004 847.05C917.178 848.063 915.991 848.714 914.693 848.866C910.964 849.263 907.29 850.072 903.739 851.278C901.629 851.68 901.126 852.383 901.026 852.484V852.484Z" fill="#231F20"/>
<path d="M2183.02 910.274H344.689C333.864 910.284 323.156 908.027 313.257 903.646C303.358 899.265 294.487 892.858 287.215 884.838C279.943 876.819 274.433 867.364 271.039 857.085C267.645 846.805 266.443 835.928 267.51 825.156L313.938 356.252C315.649 337.007 324.516 319.103 338.787 306.078C353.058 293.054 371.696 285.856 391.017 285.907H2136.59C2155.92 285.854 2174.57 293.048 2188.86 306.071C2203.15 319.094 2212.04 336.998 2213.77 356.252L2260.1 825.156C2261.17 835.92 2259.97 846.788 2256.58 857.061C2253.19 867.334 2247.69 876.783 2240.43 884.801C2233.17 892.819 2224.31 899.228 2214.42 903.615C2204.53 908.002 2193.84 910.27 2183.02 910.274V910.274ZM390.615 306.709C376.362 306.669 362.608 311.955 352.049 321.528C341.49 331.102 334.887 344.274 333.535 358.463L287.106 827.367C286.32 835.344 287.214 843.398 289.731 851.01C292.248 858.621 296.332 865.62 301.719 871.556C307.106 877.493 313.677 882.235 321.009 885.476C328.341 888.717 336.271 890.387 344.287 890.376H2183.32C2191.33 890.373 2199.25 888.693 2206.57 885.445C2213.89 882.198 2220.45 877.454 2225.82 871.519C2231.2 865.584 2235.27 858.59 2237.79 850.986C2240.3 843.382 2241.19 835.336 2240.4 827.367L2193.77 358.262C2192.35 344.101 2185.71 330.977 2175.14 321.446C2164.56 311.916 2150.82 306.662 2136.59 306.709H390.615Z" fill="#231F20"/>
<path d="M1028.05 534.523C1027.3 534.532 1026.57 534.374 1025.89 534.061C1025.21 533.748 1024.61 533.288 1024.13 532.715C1023.29 531.669 1022.9 530.337 1023.03 529.004C1023.16 527.67 1023.81 526.441 1024.84 525.58L1200.3 384.888C1201.36 384.061 1202.7 383.682 1204.03 383.832C1205.36 383.982 1206.59 384.65 1207.43 385.692C1208.25 386.734 1208.63 388.057 1208.48 389.375C1208.33 390.693 1207.66 391.898 1206.63 392.727L1031.17 533.418C1030.31 534.166 1029.19 534.561 1028.05 534.523V534.523Z" fill="#D1D3D4"/>
<path d="M394.939 556.438C393.884 556.438 392.856 556.106 392.001 555.489C391.145 554.873 390.505 554.003 390.172 553.002C389.838 552.002 389.828 550.921 390.143 549.915C390.457 548.908 391.08 548.026 391.924 547.393L585.676 402.381C586.742 401.581 588.082 401.238 589.401 401.427C590.72 401.615 591.911 402.32 592.71 403.386C593.51 404.452 593.853 405.792 593.665 407.111C593.476 408.43 592.772 409.621 591.705 410.42L397.552 555.433C396.784 555.991 395.883 556.337 394.939 556.438V556.438Z" fill="#D1D3D4"/>
</svg>
